<svg width="560" height="560" viewBox="0 0 560 560" fill="none" xmlns="http://www.w3.org/2000/svg">
<rect width="560" height="560" fill="#F3F3F6"/>
<path d="M331.25 218.5H228.75C226.032 218.5 223.424 219.58 221.502 221.502C219.58 223.424 218.5 226.032 218.5 228.75V331.25C218.5 333.968 219.58 336.576 221.502 338.498C223.424 340.42 226.032 341.5 228.75 341.5H331.25C333.968 341.5 336.576 340.42 338.498 338.498C340.42 336.576 341.5 333.968 341.5 331.25V228.75C341.5 226.032 340.42 223.424 338.498 221.502C336.576 219.58 333.968 218.5 331.25 218.5ZM228.75 228.75H331.25V278.322L315.433 262.498C313.511 260.577 310.905 259.498 308.188 259.498C305.47 259.498 302.864 260.577 300.942 262.498L232.19 331.25H228.75V228.75ZM331.25 331.25H246.688L308.188 269.75L331.25 292.812V331.25ZM259.5 274.875C262.541 274.875 265.513 273.973 268.042 272.284C270.57 270.594 272.541 268.193 273.705 265.384C274.868 262.574 275.173 259.483 274.58 256.5C273.986 253.518 272.522 250.778 270.372 248.628C268.222 246.478 265.482 245.014 262.5 244.42C259.517 243.827 256.426 244.132 253.616 245.295C250.807 246.459 248.406 248.43 246.716 250.958C245.027 253.487 244.125 256.459 244.125 259.5C244.125 263.578 245.745 267.488 248.628 270.372C251.512 273.255 255.422 274.875 259.5 274.875ZM259.5 254.375C260.514 254.375 261.504 254.676 262.347 255.239C263.19 255.802 263.847 256.602 264.235 257.539C264.623 258.475 264.724 259.506 264.527 260.5C264.329 261.494 263.841 262.407 263.124 263.124C262.407 263.841 261.494 264.329 260.5 264.527C259.506 264.724 258.475 264.623 257.539 264.235C256.602 263.847 255.802 263.19 255.239 262.347C254.676 261.504 254.375 260.514 254.375 259.5C254.375 258.141 254.915 256.837 255.876 255.876C256.837 254.915 258.141 254.375 259.5 254.375Z" fill="#C7C7D2"/>
</svg>
