<svg width="32" height="32" viewBox="0 0 32 32" fill="none" xmlns="http://www.w3.org/2000/svg">
<path d="M1.42383 15.5813C1.42383 7.53124 7.94969 1.00537 15.9997 1.00537V1.00537C24.0498 1.00537 30.5757 7.53124 30.5757 15.5813V16.0839H1.42383V15.5813Z" fill="#F7343C"/>
<path d="M1.42383 16.5862C1.42383 24.6362 7.94969 31.1621 15.9997 31.1621V31.1621C24.0498 31.1621 30.5757 24.6362 30.5757 16.5862V16.0836H1.42383V16.5862Z" fill="white"/>
<path d="M29.4869 16C29.4869 8.55138 23.4486 2.51309 16 2.51309C8.55138 2.51309 2.51309 8.55138 2.51309 16C2.51309 23.4486 8.55138 29.4869 16 29.4869V32C7.16344 32 0 24.8366 0 16C0 7.16344 7.16344 0 16 0C24.8366 0 32 7.16344 32 16C32 24.8366 24.8366 32 16 32V29.4869C23.4486 29.4869 29.4869 23.4486 29.4869 16Z" fill="black"/>
<path d="M0.418848 14.911H31.5812V17.1728H0.418848V14.911Z" fill="black"/>
<path d="M30.5761 15.8745C30.5761 24.0865 23.919 30.7436 15.707 30.7436C15.707 30.7436 25.885 27.6375 25.885 16.2448C25.885 4.85217 15.707 1.00537 15.707 1.00537C23.919 1.00537 30.5761 7.6625 30.5761 15.8745Z" fill="black" fill-opacity="0.1"/>
<path d="M21.2774 16.042C21.2774 18.9798 18.8959 21.3614 15.958 21.3614C13.0202 21.3614 10.6387 18.9798 10.6387 16.042C10.6387 13.1042 13.0202 10.7227 15.958 10.7227C18.8959 10.7227 21.2774 13.1042 21.2774 16.042Z" fill="white"/>
<path d="M19.0156 16.042C19.0156 14.3534 17.6467 12.9844 15.958 12.9844C14.2694 12.9844 12.9005 14.3534 12.9005 16.042C12.9005 17.7307 14.2694 19.0996 15.958 19.0996V21.3614C13.0202 21.3614 10.6387 18.9798 10.6387 16.042C10.6387 13.1042 13.0202 10.7227 15.958 10.7227C18.8959 10.7227 21.2774 13.1042 21.2774 16.042C21.2774 18.9798 18.8959 21.3614 15.958 21.3614V19.0996C17.6467 19.0996 19.0156 17.7307 19.0156 16.042Z" fill="black"/>
</svg>
